<svg xmlns="http://www.w3.org/2000/svg" viewBox="0 0 512 512" role="img" aria-label="Golden dragon favicon">
  <defs>
    <radialGradient id="bg" cx="50%" cy="35%" r="70%">
      <stop offset="0%" stop-color="#3a0a0a"/>
      <stop offset="55%" stop-color="#1f0707"/>
      <stop offset="100%" stop-color="#090202"/>
    </radialGradient>
    <linearGradient id="gold" x1="0" y1="0" x2="1" y2="1">
      <stop offset="0%" stop-color="#fff6b0"/>
      <stop offset="20%" stop-color="#ffe36a"/>
      <stop offset="45%" stop-color="#ffc82e"/>
      <stop offset="70%" stop-color="#f5a400"/>
      <stop offset="100%" stop-color="#b86b00"/>
    </linearGradient>
    <filter id="glow" x="-40%" y="-40%" width="180%" height="180%">
      <feGaussianBlur stdDeviation="10" result="blur"/>
      <feColorMatrix in="blur" type="matrix" values="1 0 0 0 0.9  0 1 0 0 0.45  0 0 1 0 0  0 0 0 1 0" result="goldGlow"/>
      <feMerge>
        <feMergeNode in="goldGlow"/>
        <feMergeNode in="SourceGraphic"/>
      </feMerge>
    </filter>
  </defs>
  <rect width="512" height="512" rx="110" fill="url(#bg)"/>
  <circle cx="256" cy="256" r="210" fill="none" stroke="#6b1111" stroke-width="18" opacity="0.85"/>
  <path d="M355 118c32 18 48 48 45 82-3 27-18 51-42 63-18 9-40 10-57 5 13 22 20 45 18 71-3 37-25 72-59 91-31 18-72 22-112 10 38-1 72-15 96-39 23-23 36-56 31-86-4-24-22-41-43-52-17-9-37-13-58-16 24-8 48-18 67-34 18-15 32-38 29-61-2-17-14-33-31-41 44-8 84-6 116 8z"
        fill="url(#gold)" stroke="#c21d1d" stroke-width="24" stroke-linejoin="round" filter="url(#glow)"/>
  <path d="M311 143c26-11 53-9 71 3-15 3-25 11-30 21 20 3 32 16 33 33 1 19-14 38-38 49 14 15 19 35 13 54-8 25-31 45-58 53 13-15 18-33 14-48-4-14-16-25-32-33 19-7 33-18 42-31 10-14 14-31 10-46-3-10-11-19-25-24z"
        fill="#7e100f" opacity="0.35"/>
  <path d="M340 132l40-32-11 40 33 7-35 16 18 29-33-15-16 31-3-36-36 2 28-22-21-20 36 0z"
        fill="url(#gold)" stroke="#c21d1d" stroke-width="12" stroke-linejoin="round" filter="url(#glow)"/>
  <path d="M351 146c11 0 20 9 20 20 0 13-11 23-24 23-11 0-20-9-20-20 0-13 11-23 24-23z" fill="#fff4b4" stroke="#c21d1d" stroke-width="8"/>
  <circle cx="354" cy="166" r="7" fill="#7a0505"/>
  <path d="M385 182c16 8 26 22 25 37-1 19-18 34-43 40" fill="none" stroke="#c21d1d" stroke-width="14" stroke-linecap="round"/>
  <path d="M171 368c24 22 59 34 95 31 37-3 72-21 93-47" fill="none" stroke="#ffd84d" stroke-width="16" stroke-linecap="round" opacity="0.7"/>
</svg>